<svg xmlns="http://www.w3.org/2000/svg" viewBox="0 0 62.8 62.8"><defs><style>.cls-1{fill:#108f86;}.cls-2{fill:#fff;}</style></defs><title>icono-calles</title><g id="Capa_2" data-name="Capa 2"><g id="Pagina_Inicio_Movil" data-name="Pagina Inicio Movil"><circle class="cls-1" cx="31.4" cy="31.4" r="31.4"/><path class="cls-2" d="M50.49,46.56a3.71,3.71,0,0,1-1.68,2.93,13,13,0,0,1-4.47,2.09,40.28,40.28,0,0,1-6.13,1.19,58,58,0,0,1-6.91.4,58,58,0,0,1-6.91-.4,40.28,40.28,0,0,1-6.13-1.19,13,13,0,0,1-4.47-2.09,3.71,3.71,0,0,1-1.68-2.93,3.37,3.37,0,0,1,.9-2.29,7,7,0,0,1,2.48-1.72,23.4,23.4,0,0,1,3.22-1.15,33,33,0,0,1,3.57-.76,1.72,1.72,0,0,1,1.31.27A1.55,1.55,0,0,1,24.29,42,1.5,1.5,0,0,1,24,43.23a1.65,1.65,0,0,1-1.13.67q-1.58.26-2.89.61a19.15,19.15,0,0,0-2.09.66,12.39,12.39,0,0,0-1.32.61,3.44,3.44,0,0,0-.75.5.89.89,0,0,0-.23.31q.08.28.74.69a10.4,10.4,0,0,0,2,.85,29.3,29.3,0,0,0,3.11.84,38.92,38.92,0,0,0,4.37.65q2.6.26,5.49.26t5.49-.26A38.92,38.92,0,0,0,41.17,49a27.21,27.21,0,0,0,3.11-.85,10.85,10.85,0,0,0,2-.87q.65-.4.74-.71a.73.73,0,0,0-.23-.28,4.92,4.92,0,0,0-.75-.49,9.72,9.72,0,0,0-1.32-.61,21.77,21.77,0,0,0-2.09-.65q-1.31-.35-2.89-.61a1.65,1.65,0,0,1-1.13-.67A1.5,1.5,0,0,1,38.3,42,1.55,1.55,0,0,1,39,40.91a1.72,1.72,0,0,1,1.31-.27,33,33,0,0,1,3.57.76,23.4,23.4,0,0,1,3.22,1.15,7,7,0,0,1,2.48,1.72A3.37,3.37,0,0,1,50.49,46.56ZM40,23.4v9.93a1.55,1.55,0,0,1-.52,1.16,1.72,1.72,0,0,1-1.23.49H36.53v9.93A1.55,1.55,0,0,1,36,46.07a1.72,1.72,0,0,1-1.23.49h-7a1.72,1.72,0,0,1-1.23-.49,1.55,1.55,0,0,1-.52-1.16V35H24.32a1.72,1.72,0,0,1-1.23-.49,1.55,1.55,0,0,1-.52-1.16V23.4a3.11,3.11,0,0,1,1-2.34,3.46,3.46,0,0,1,2.47-1H36.53a3.46,3.46,0,0,1,2.47,1A3.11,3.11,0,0,1,40,23.4ZM37.4,13.47a5.44,5.44,0,0,1-1.79,4.1,6.36,6.36,0,0,1-8.64,0,5.44,5.44,0,0,1-1.79-4.1A5.44,5.44,0,0,1,27,9.37a6.36,6.36,0,0,1,8.64,0A5.44,5.44,0,0,1,37.4,13.47Z"/></g></g></svg>