<svg xmlns="http://www.w3.org/2000/svg" viewBox="0 0 62.8 62.8"><defs><style>.cls-1{fill:#108f86;}.cls-2{fill:#fff;}</style></defs><title>icon-alumbrado</title><g id="Capa_2" data-name="Capa 2"><g id="Pagina_Inicio_Movil" data-name="Pagina Inicio Movil"><circle class="cls-1" cx="31.4" cy="31.4" r="31.4"/><path class="cls-2" d="M37,21.26a5,5,0,1,0-5,5A5,5,0,0,0,37,21.26Zm-5,3.32a3.32,3.32,0,1,1,3.32-3.32A3.33,3.33,0,0,1,32,24.59Z"/><path class="cls-2" d="M27,41.21a5,5,0,1,0,5-5A4.9,4.9,0,0,0,27,41.21Zm5-3.32a3.32,3.32,0,1,1-3.32,3.32A3.33,3.33,0,0,1,32,37.88Z"/><path class="cls-2" d="M37,31.23a5,5,0,1,0-5,5A5,5,0,0,0,37,31.23Zm-5,3.32a3.32,3.32,0,1,1,3.32-3.32A3.33,3.33,0,0,1,32,34.56Z"/><path class="cls-2" d="M43.66,26.08l8.31-10H43.66V13A1.71,1.71,0,0,0,42,11.13H22.05A1.71,1.71,0,0,0,20.39,13v3.16H12.08l8.31,10H12.08l8.31,10H12.08l8.31,10.14v3.32A1.53,1.53,0,0,0,22.05,51H42a1.53,1.53,0,0,0,1.66-1.5V46.19L52,36.05H43.66l8.31-10Zm0-8.31h5l-5,6.15ZM20.39,43.86l-5-6.15h5Zm0-10-5-6.15h5Zm0-10-5-6.15h5ZM40.33,47.69H23.72V14.45H40.33Zm8.31-10-5,6.15V37.72Zm-5-10h5l-5,6.15Z"/></g></g></svg>