<svg xmlns="http://www.w3.org/2000/svg" viewBox="0 0 145.22 32.98"><defs><style>.cls-1{font-size:26.94px;fill:#fff;font-family:OpenSans-Bold, Open Sans;font-weight:700;}.cls-2{fill:#108f86;}</style></defs><title>Recurso 11</title><g id="Capa_2" data-name="Capa 2"><g id="Pagina_Inicio_Movil" data-name="Pagina Inicio Movil"><text class="cls-1" transform="translate(30.73 25.08) scale(0.46 1)">ALCALDE EN LÍNEA</text></g><g id="Esquema_de_colores" data-name="Esquema de colores"><path class="cls-2" d="M24.15,16h-5V12.4a.47.47,0,0,0-.47-.47h-.59s0-1.71,0-1.72a5.76,5.76,0,0,0-5.29-5.7V3.38a.47.47,0,1,0-.94,0V4.51a5.76,5.76,0,0,0-5.29,5.74v1.68H6a.47.47,0,0,0-.47.47V16h-5a.47.47,0,0,0-.47.47v8.89a.47.47,0,0,0,.47.47H24.15a.47.47,0,0,0,.47-.47V16.43A.47.47,0,0,0,24.15,16ZM12.31,5.43a4.83,4.83,0,0,1,4.8,4.35H7.51A4.83,4.83,0,0,1,12.31,5.43ZM7.49,10.72h9.64v1.22h-.64V11.4a.47.47,0,1,0-.94,0v.54H15V11.4a.47.47,0,1,0-.94,0v.54h-.55V11.4a.47.47,0,1,0-.94,0v.54H12V11.4a.47.47,0,1,0-.94,0v.54h-.55V11.4a.47.47,0,1,0-.94,0v.54H9.06V11.4a.47.47,0,1,0-.94,0v.54H7.49V10.72ZM6.43,12.87H18.19V16h-.71v-.1a.47.47,0,0,0-.34-.45L12.46,14a.47.47,0,0,0-.26,0L7.52,15.41a.47.47,0,0,0-.34.45V16H6.43Zm8.18,5.27v6.72H13.52V18.14ZM8.12,17.2v-1L12.33,15l4.21,1.24v1Zm3,.94v6.72H10.05V18.14ZM.94,16.9H7.18v.77a.47.47,0,0,0,.47.47h0v6.72H.94Zm7.68,8V18.14h.5v6.72Zm3.46,0V18.14h.5v6.72Zm3.46,0V18.14H16v6.72Zm8.14,0H17V18.14h0a.47.47,0,0,0,.47-.47V16.9h6.2Z"/><path class="cls-2" d="M3.81,17.41a1.34,1.34,0,0,0-1.34,1.34v1.31a.47.47,0,0,0,.47.47H4.69a.47.47,0,0,0,.47-.47V18.75A1.34,1.34,0,0,0,3.81,17.41Zm.41,2.18H3.41v-.84a.41.41,0,1,1,.81,0Z"/><path class="cls-2" d="M3.81,21a1.34,1.34,0,0,0-1.34,1.34v1.31a.47.47,0,0,0,.47.47H4.69a.47.47,0,0,0,.47-.47V22.31A1.34,1.34,0,0,0,3.81,21Zm.41,2.18H3.41v-.84a.41.41,0,1,1,.81,0Z"/><path class="cls-2" d="M20,20.53h1.75a.47.47,0,0,0,.47-.47V18.75a1.34,1.34,0,1,0-2.68,0v1.31A.47.47,0,0,0,20,20.53Zm.47-1.78a.41.41,0,0,1,.81,0v.84h-.81Z"/><path class="cls-2" d="M20,24.09h1.75a.47.47,0,0,0,.47-.47V22.31a1.34,1.34,0,1,0-2.68,0v1.31A.47.47,0,0,0,20,24.09Zm.47-1.78a.41.41,0,0,1,.81,0v.84h-.81Z"/></g></g></svg>