<svg xmlns="http://www.w3.org/2000/svg" viewBox="0 0 339.62 307.73"><defs><style>.cls-1{fill:#c5ecfb;}.cls-2{fill:#00d34b;}.cls-3{fill:#003454;}.cls-4{fill:none;}.cls-5{fill:#b2e2de;}.cls-6{fill:#002c3d;}.cls-7{fill:#fff;}.cls-8{fill:#ff6111;}.cls-9{fill:#b0c9cb;}</style></defs><title>network</title><g id="Capa_2" data-name="Capa 2"><g id="Pagina_Inicial_Escritorio" data-name="Pagina Inicial Escritorio"><g id="Porque_somos_tu_mejor_elección" data-name="Porque somos tu mejor elección"><path class="cls-1" d="M184.67,0C99.29,0,29.83,69,29.83,153.87S99.29,307.73,184.67,307.73s155-68.91,155-153.76S270,0,184.67,0Z"/><path class="cls-2" d="M331.38,195.79c-2,0-4.68,1-4.68,1.66s-2.78,1.88-3.78,2.32-2.67,3.21-3.12,4.09-2.67.66-3.45,1-2.56,1.77-2.56,2.54-.45.66-1-.22l-1.11,1.11-1.34,1.44c-.78,2.32-3.23,5.31-4.12,5.53s-1,4.31-1,6a7.82,7.82,0,0,0,1.45,4.54v1.33l.22,2.65a4.63,4.63,0,0,0,1.56,4.2c.45.33,4.23-.66,5.68-1l2-.77a156.11,156.11,0,0,0,15.92-36.72A1.12,1.12,0,0,1,331.38,195.79Z"/><path class="cls-2" d="M75.69,199.66c-.22.44,2.56,3.21,3.56,4.2A28.71,28.71,0,0,1,83,210.94a12.64,12.64,0,0,1,0,4.54,7.71,7.71,0,0,0,.56,2.32c.11.55-.89,5-.56,6.86s-2.11,7.41-2,10.29,1.34,6.42,1.78,6.19.67,2.54-.11,2.88-1.89,2.54-1.34,2.65,0,2.32.11,3.21.89,6.75,1,8.19,2.23,5,2.67,6.19.89,3.43,1,3.76l.33.77a10.6,10.6,0,0,1,2.23,1c.45.33,3.78.11,4.9-.11s.11-1.22-.33-1.66-.89-3.1-1.45-3.32-.78-3.54-.33-4.31,2.45-1.88,2.67-2.54.22-3.43-.22-3.87.11-3.87-.22-5.64,3-3.32,3.23-4.65,3.9-2.88,4.68-3.54,1.56-4.65,1.11-5.42,1.34-1.55,2.11-1.55a11.19,11.19,0,0,0,2-.55c.22,0,1.22-1.77,1.67-2.1s1.56-4.54,2.45-5.2a7.5,7.5,0,0,0,1.67-3.87,10.26,10.26,0,0,1,1.89-3.54c.45-.66,3.9-2.21,4.56-2.43s1.56-5.75,1.78-7.74a44.37,44.37,0,0,1,1.34-5.31c0-.66,1.11-1.22,1.34-1.44s1-2.77,1.56-3.32,2.45-3,2.45-3.54a17.49,17.49,0,0,1,.67-3.1V187.6c-.56-1.66-2.45-3.76-2.89-3.21s-2.56-1.44-3.67-1.88a18.26,18.26,0,0,0-4.45-.66c-.67,0-3-1.88-4.12-2.21a37.29,37.29,0,0,1-4.23-1.11c-.45-.33-1.11-4.31-3.34-5.64s-6-4.42-6.46-5.53-4.56-3.43-5.9-4.2-3.23-.88-3.45-.55-1.89-2.21-2.67-2.88-3.34-1.22-3.45-.66-1.78.22-2.11-.22-1.67.22-2.34.44-2.67,3.32-3.67,4.09-2.11-.66-2.78-1a6.71,6.71,0,0,0-3.67,1c-.67.44-2.11-3.32-1.78-5.09s-1.56-5.2-3.12-5.31-1.89-3.76-1.67-5.09-2.67-2.21-3.45-2.32-2.56,1.77-2.89,2.77S49,147.12,49.76,143s4-8.3,4.79-8.74,5.12-.66,6.12-.11a1.79,1.79,0,0,0,2-.22,13.66,13.66,0,0,1,4.79.44c1,.44,2.56,4.54,3.67,5s1.45-2.65,1.67-3.43a9.9,9.9,0,0,0-.78-3.21c-.22-.55,1.78-5.53,3.45-6.31s3.45-3.65,3.23-4.09,1.34-.88,1.67-1.11,0-4.2.56-5.09a19.16,19.16,0,0,1,4.79-3.1c1-.44,1.67-2.88,1.34-3.43s2.56-2.88,4.12-3.43,2.78.88,2.45,1S96,106,96.84,105.41s0-2.54-.67-3.1-.22-2.65.56-2.88A2.77,2.77,0,0,0,98,97c-.22-.33,3.34.33,4.68-.66s.33,2.32-.56,3.76a1.54,1.54,0,0,0,.39,2.16,1.57,1.57,0,0,0,.95.28,1.45,1.45,0,0,1,1.45,1.11c.11.33,1.45-.44,2.34,0s1.45-1.22,1.45-2-2.11-2.21-2.45-3.21a50.57,50.57,0,0,1-.45-7.19c0-1-1.45-2.77-1.89-2.43s-1.34-2.77-2.11-3.43a3.86,3.86,0,0,1-.89-2.65c0-.44-2.45-3.1-3.12-4.31s-1.45-1-1.56-.44-1.78.66-2.56.55-1.34-2.88-1.34-3.87-3.23-1.22-3.78-2.1-2.67-.44-3-1a3.58,3.58,0,0,0-2.56-.88c-.33.22-.22,7.85-.56,9.84s-2.11,3.87-2.78,3.76-.22,1.44.11,1.33-1.22,2.21-1.45,3.76-1.78,0-2-1.44-1.78-3.32-2.11-2.88-1.34-.55-1.78-.22S69,83.18,67.79,82.52,66,78.31,65.23,78s-.11-.77-.11-1.33,2.34-2.65,3-3.43a54.91,54.91,0,0,1,4.23-4.87c1-.77,1.78-2.54,1.56-2.88s4.34-1.77,5.57-2.1,2.23-3.76,2.45-4.76a4.08,4.08,0,0,0-1.34-3c-.56-.22,1.67-.33,2.45.11s3-.66,4-.22L91.17,58l-.22,2.43-.56,4.2c-3.56,1.44-4.56,4-3.34,3.87s6.9,2.43,8.46,3.54,2.11-1.66,2.56-2.54a7.37,7.37,0,0,0,0-4.09c-.45-.55,1.78-.33,2.45.22s1.34-.55,1.78-.88.67-2.54,1-3-1-.88-1.11-1.55-2.56-1.66-3.34-2.1a2,2,0,0,1-.56-2.43c.33-.33-.22-2.54-.67-3.21s-3-1.33-3.9-1.33-1.78-2-2.34-2.32a16.35,16.35,0,0,0-4.79-.44c-.78.22-2.34-2.43-3.78-1.55s-2.89-.88-3.56-1.33-4,3.21-3.9,5.64,1.22,4.87,1.78,5-.11,2.32-.67,3-2-.66-1.45-1.22-1.45-3.21-2.11-4.2-2.23-1.44-3.34-1.88l-2,2.21a5.61,5.61,0,0,1,.22,3C67.34,58.51,66,58.74,66,58.07a1.9,1.9,0,0,0-1.45-.55,152.5,152.5,0,0,0-34.84,80.42,7.3,7.3,0,0,1,1.78,2.54c.45,1.33,2.78,2.21,3.23,2.54s.56-2.54.22-3.32.56-1.11.56-.66,2.23,3,2.89,4,1.45,6.75,2.23,8,7.46,3.87,9.68,4.31a12.25,12.25,0,0,1,5.34,3.54c.45.66,3.34,1,3.9,1.33a30.8,30.8,0,0,1,2.67,2.65,3.87,3.87,0,0,1,1.11,1.88c0,.33,3.78,1.77,4.79,2.77a2.35,2.35,0,0,0,2.78.33c.22-.44,1,2,1.45,2.88a4.59,4.59,0,0,1,.11,3.21c-.33.33-.78,4.09-1.45,4.87s-2,6.31-1.67,7.41a8.2,8.2,0,0,0,2.89,3.65.88.88,0,0,1-.11,1.55c-.56,0-.33,5.42,1.11,6.19S75.92,199.33,75.69,199.66Z"/><path class="cls-3" d="M93.84,106"/><path class="cls-2" d="M83.26,41c1.78-.33,4.9-.88,5.12-1.33a4.62,4.62,0,0,0-.11-2.1h.89c.67,0,1.89-3.76,2.56-4.65s4.9-2.21,5.9-2.77,3.23-2.65,4-3,2.11-2.21,1.89-2.54,2.89-2.21,4-2.65,1.78-1.77,1.34-1.88-6.68,3.32-12.58,6.64A174,174,0,0,0,77.14,41.92Z"/><path class="cls-2" d="M195.36,232.62c1.89-1.11,5.34-6.08,6.46-7.08s1.89-4.76,2.11-5.53a6.33,6.33,0,0,1,2.45-2.32c.56-.22,2.56-8.41,4.34-10.29s3.78-10.51,3.56-13.72,1.11-9.07,1.56-10.51a16.15,16.15,0,0,1,3.23-4.54,92.81,92.81,0,0,0,6.23-9c1.34-2.21,2.67-7.08,2.34-8.3s-3.23-2-3.78-1.33-3.34,1-4.23,1-2.89-4.76-4.12-5.64-2.34-6.42-3.12-7.41a51.35,51.35,0,0,0-3.34-4.2c-.67-.55-.78-3.43-.89-4.2s1.22.44,1.45,1.66,3.45,5.75,4.45,7.3,3.67,6.53,4.34,8.07,6.57.77,8.57-.11,4.34-2.43,4.45-3,3.12-1.88,4-2.54,1.56-4.2,2.11-4.76-.45-4-1.11-5-3.67-1.77-4.34-1.44-1.89-2.21-2.45-3.21-2.78-2.21-3-2.88a2.43,2.43,0,0,1,1-2c.33-.22,4.68,2.77,5.9,4.31a24.32,24.32,0,0,1,2.89,4.76c.22.55,3.67.66,4.45.11a1.23,1.23,0,0,1,1.73.1,1.2,1.2,0,0,1,.16.23h1l3.78-.55a7.29,7.29,0,0,1,2.23,4,4.32,4.32,0,0,0,1.78,2.1c.67.11,1.22,2.54,1.45,3.21a53.28,53.28,0,0,1,2.78,5.75,32.12,32.12,0,0,0,2.67,5.31,12.1,12.1,0,0,1,.78,3.76,2.56,2.56,0,0,0,2.23,1.77c.78-.11,2.56-5.42,3-7.41s1.78-3.65,2.11-3.65.67-1.11.67-1.55,2.11-.33,2.34-.88.78-4.09,1.56-4.65a33.55,33.55,0,0,1,4.45-2.65c.89-.33,3.45,1.77,4,2.77a8.25,8.25,0,0,1,.78,3.87c-.22.33,1.22,2.54,2.56,2.54s1.67,1.66,1.78,2.21,1.78,2.32,2.11,3.1a7.26,7.26,0,0,1,0,3.43,17.48,17.48,0,0,0,.11,4.09c.22.77,4.23,4.87,5.79,6.08s2.23-2.54,1.45-3.65-3.45-3.87-4-4.65-.67-4.09-.45-5,2.34.44,3.12,1.11a6.42,6.42,0,0,1,2,2.54c0,.44,5.45-2.54,5.68-5.75s2-7,2.11-7.85a2.32,2.32,0,0,0-1-2.1c-.45-.11.78-2.43,2.34-2.43s5.12-4,6-5.64a12.86,12.86,0,0,1,2.78-3.1,23.56,23.56,0,0,0,1.56-5.53c.22-1.55-.89-4-1-4.87a13.13,13.13,0,0,0-1.78-3.21,6.71,6.71,0,0,1-.45-3.21c.11-.33,1.56-.77,1.67-1.22s1.67-2,1.56-2.77.89,1,1.67,1.55,1.45,4.54,2.34,4.87,4.45-4.09,4-7.08,1-6.75,1.89-7.08,2.34-2.65,3.45-4.31A153.86,153.86,0,0,0,289.53,44.8H289l-1.34-.22c-2.23-.44-3.45-2.77-3.12-3.32a1.43,1.43,0,0,0,0-1c-1.22-1.11-2.45-2.21-3.78-3.21H278a12.3,12.3,0,0,1-4.68-1.44c-.45-.44-2.23.44-2.34,1.44s-3.12,1.33-3.34,2.1a1.79,1.79,0,0,1-2.11.44c-.22-.44-3.12,1-4.45,1.11a20.35,20.35,0,0,0-4.56,1.55,6.88,6.88,0,0,0-2.34,2.32,7.24,7.24,0,0,1-2.56,1.77c-.56.22-.45,2.77.22,3.21s-1.34-.33-2.34-.77-1.89,1.11-2.23,1.66-1.11-.33-1.11-1.11-2.34-1.33-2.56-.77-1.89-.22-2.56-.55-3.56,2.65-4.68,3.76-6.23,1.88-7.12,1.55-1.89,2.21-1.11,2.43H225a27.27,27.27,0,0,0-7.35,2.77,1.23,1.23,0,0,1-1.73-.15,1.21,1.21,0,0,1-.28-.63c0-.66-1.78-1.22-2.23-1.33s-1.56,3.43-2.45,4.09-2-2.77-4.23-3.43-5.57-2.65-6.57-2.88-2.89-2.21-3.45-2.88-3.34-1-4.23-1-3.78,1.66-4.56,2.21-1.89.44-2.34.77-3.67,3.32-4.9,4.31-3.45,5.2-4.12,6.31a2.68,2.68,0,0,1-2.11,1.22,2.1,2.1,0,0,0-.78,1.55c0,.44-3.67,2.32-4.12,4s.45,5.53.45,6.86,1.34,4.09,2.34,4.09.56,2.32.22,3,.67,1.33.56,1.88-2.56,1.33-3.34,1.55a5.54,5.54,0,0,0-2.23,2.77c-.11.55-2.56,1-3.45,1.77a10,10,0,0,1,.67-1.77,3,3,0,0,0-.56-2.77c-.33-.33-.56-4.76-1.22-5.75a24.84,24.84,0,0,0-2.56-2.88c-.33-.33.22-1.44.56-2s-2.11-.77-2.67-.44-1,4.76-1.22,6a3.75,3.75,0,0,0,1.56,3.1c.45.11.22,2.21-.56,2.32s-1.56,3.21-1.11,4-.56,2.1-1,2.43,3.12.11,4.79.11a4.36,4.36,0,0,1,2.78.77c-.11.11-3.12.55-3.67,1.22s-2.56,2-2.89,2.54.67,1.66,1.45,1.66,1.78,2.88,2.45,3.43a2.42,2.42,0,0,1,.11,2.54c-.22.44-4.34-.22-5.79.11s-3.45,3.54-3.56,4.76a31.22,31.22,0,0,0,.45,5.64c.11,1,3.34,1.55,4,2s3.67,0,4.34.33,2.67-3.1,3.12-4.65,3.67-4.42,4.34-5.53,4.12-.88,5-1.44.45,2.65.78,4.42,3.78,1.55,3.23-.11.33-2.32.45-1.77,3.34,1.88,4,2.77.45,2.88-.22,2.88-.78,2.1,0,2.43,1.78-2.43,2.56-2.88,1.45-2.1,1.11-2.21.67-1.66,1.11-1.11a19.72,19.72,0,0,0-3.12-4.65c-1.45-1.44-.33-.77,2.11,1.33l1.78,2.43c.33.44.78,1.77,1.11,2.21l.45.66a17.83,17.83,0,0,1,.67,3.87,2.56,2.56,0,0,0,2.23,1.77,1.45,1.45,0,0,1,1.34.44c-.11.11.56,1.66,1.34,1.66s1.22-2.1.33-2.1-.67-3.1-.78-4.54.56-2.43.89-2.43,0,2.77,0,3.43a10.68,10.68,0,0,0,.78,2.77l.89.66,1.89,1.44c2.78-.77,6.57-.11,6.34.44s2,.66,2.11-.22.22.11.22.66-1.78,3.1-2.11,4.2-6.79.33-9.57.11-6.9.66-7.12,1.55-4.56-1.88-6.57-2.65-3.56-3.76-3.9-4.2.33-1.33.11-2-4.68-.66-6-.22-8.13,1.22-9.68,1.88-4,0-4.79-.11-2.56,2.1-3.45,2.43-2,3.54-2.56,7l-1.22,2.32-.78,1.55c-2.23,1.66-4.68,7.3-5.45,8.52S142,152.21,142,155s2.34,8.52,3.12,10.18,4.79,5.09,6.23,6,5.9,1,7.35,1a4.33,4.33,0,0,0,3.67-3.1l2.11.22h1c0,1.22,3.23,2.1,4,2.54a6.16,6.16,0,0,0,3.45-.11c.56-.11,1.34,5.42.89,7.08s1.11,7.3,1.56,9.07,2.45,6.42,2.56,8.07-1.11,7.3-1.34,9.29,2.45,7.41,3.12,9.29a34.09,34.09,0,0,1,1.22,6.86c0,.88,2.89,6.64,3.56,9S193.35,233.73,195.36,232.62Z"/><path class="cls-2" d="M322.92,162.71c.11.44,2-1,3.12-1.22s1.78-3.1.89-3.32-1.89-2.54-2.56-2.77-1.78,1-1.78,1.88-2,1.22-2.45,2-.33,1.22,0,1.22A10.2,10.2,0,0,1,322.92,162.71Z"/><path class="cls-2" d="M320.7,179c.56-.22,0-3.1-1.22-3.32s-4.34,3.87-3.78,6.19,1.22,2.21,1.56,1.66,2.23.33,2.78.44.56-.33,0-1.22S320.14,179.2,320.7,179Z"/><path class="cls-2" d="M314.35,176.1c.11-1,.33-4.31.45-5s-1.78-2.54-2.78-2.88-4,6.31-6.23,7.52-3,5.31-2.45,6.19,5.23,1.44,6,2.1,1.67-.11,2.23-.22.33-.44.11-.55,1.56-2,1.89-3.21A30.36,30.36,0,0,0,314.35,176.1Z"/><path class="cls-2" d="M301.66,187.27c-1.67-.66-3.78.33-3.9,1s6.68,1.77,9,2.32,3.67.77,3.23.44Z"/><path class="cls-2" d="M315.8,142.47c.56-.77-.78-4.31-1.45-3.54s-.11,2.88,0,3.65S315.24,143.25,315.8,142.47Z"/><path class="cls-2" d="M319.81,150.22c.45-.88-.45-1.88-2-2.21s-1.22,4.09-.56,4.65S319.47,151.1,319.81,150.22Z"/><path class="cls-2" d="M327.71,177.87c1.78,1.22,5.79.66,5.9-1.66C331.83,175,327.6,175.21,327.71,177.87Z"/><path class="cls-2" d="M326.71,123a2.54,2.54,0,0,0-.89,2.32h-.33c-.56,0-.67,2.32,0,2.77s2.11-1.77,2.89-2.32a3.8,3.8,0,0,1,2.56-.66,7.5,7.5,0,0,0,3-.88,2.66,2.66,0,0,0,.89-1c-.33-1.66-.78-3.32-1.11-5.09l-2,1.44Z"/><path class="cls-3" d="M285.75,170.35"/><path class="cls-2" d="M296.88,180.63a20.39,20.39,0,0,0-4.68-5.42l-.67-1.22-.78-1.33c-.67-1.44-2.89-2.54-3.12-3s-.89,1.22-1.67.77l2.34,1.66c2,1.44,6,11.5,7,12.17S297.54,182.07,296.88,180.63Z"/><path class="cls-2" d="M264.93,164.37c-.56,1.11,2.89,3.54,3.23,3a7.27,7.27,0,0,0-1-3.87C266.49,162.83,265.6,163.27,264.93,164.37Z"/><path class="cls-2" d="M218.18,217.91c.11,1.22,2.56,2.1,3.23,1.88s2.67-3.76,2.89-4.76a30.92,30.92,0,0,0,.56-3.76,4.84,4.84,0,0,1,.56-1.88,7.38,7.38,0,0,0,1-2.65c.22-1.33-1.45-7.63-1.45-8.74s-1.22.55-1.56,1.66-3.45,3.43-4.23,4.31-1.45,4.09-1.11,4.65a7,7,0,0,1-.56,3.32C217.06,212.6,218,216.81,218.18,217.91Z"/><path class="cls-2" d="M104.08,261.72h2.11C106.42,259.39,104,259.72,104.08,261.72Z"/><path class="cls-2" d="M160.85,23.45a7.16,7.16,0,0,1-3.56-.77,8.62,8.62,0,0,0-4.79-.33c-1,.44-.33-2.43,1-2.65s.22-2.21-1.22-2.21-5.12-.55-5.9-.33a14.44,14.44,0,0,1-3.12-.66c-.56-.11-5,1.33-7,1.22a47.61,47.61,0,0,0-8.24.44c-1.11.22-1.89,2.43-1.67,3.21s-4.9.77-6.46.77-10.13,1.77-12.36,3-3.9,4.31-3.23,4.31-1.22,1.77-2.45,2.21-4,.55-4.68,1.22.67,1.11.89,1.55,1-.33,1.78.11,3.23.55,3.9.88-2.11.77-3.34.88-1,2.54,0,3,3.78.66,4,.22,3.23.44,4.56.66,2.34,3.43,2.78,4.2.45,3.21.45,4,2.34,2,2.78,1.55.33,1.11-.67,1-.33,2.65.89,3.1.33,2.1-.33,2.65-.33,2.1-1,2.77,2.56,6.19,2.45,9.07,1.78,5.2,2.45,5.2,3,.55,3.34,1.22,1.45-.44,1.89-.88a28.4,28.4,0,0,0,2.11-3.1c.78-1.22,2.34-7,2.56-7.63s2.89-.22,3.56-.55a28.25,28.25,0,0,0,2.89-2.1c.45-.44,4.34-2,5.45-2.77s2.78-4,3.67-4.76-.45-.44-1.45-1.11a1.1,1.1,0,0,1-.22-1.77c.22-.33,3.45.44,4.45.88s3.12-1,2.34-1.55-.33-.55,0-.33.78-1.88.45-2.32,3.12-3,2.56-5.42.89-5,1.89-5,.67-2.77-.56-3,0-.44.45-.88a6.93,6.93,0,0,0,.67-3.32c-.22-.44,1.78-1,2.11-1.55A9.48,9.48,0,0,1,160.4,26C161.07,25.66,161.63,23.45,160.85,23.45Z"/><path class="cls-2" d="M180.89,25.66c-1.11-.33-3.34.88-3,1.55s-1.78-.88-3.23-.11-1.89,3.32-1.22,3.65,1.11,2.32,1.11,2.77,2.78.11,3.56-.44.56,2-.11,2.77.22,2.1,1,2.21,1.78,1.88,2.67,1.88,2.23-3.1,2.45-4.2,3-.22,4.23.11,1.67-4.2.33-5-3-.33-3.56-.88A4.24,4.24,0,0,0,183,28.87C182.56,28.76,182,26,180.89,25.66Z"/><path class="cls-2" d="M191.68,27.87a7.71,7.71,0,0,0,5.12-2c.56-.44-6-1.77-8.57-1.88s-4.45.22-4.45.77S189.57,27.54,191.68,27.87Z"/><path class="cls-2" d="M151.83,86.61c-.56-.22-.89,1.88-.78,2.65s2.11.77,3,.55a1.77,1.77,0,0,0,1.45-1.55c0-.66-1.22-3.87-1.67-3.87S152.39,86.83,151.83,86.61Z"/><path class="cls-2" d="M158.29,61.5c-.45-.77-3.78-.66-4.68-.66a11.85,11.85,0,0,1-3.9-1.44c-.56-.55-.78,2.1-1.56,2.43s.45.77.67.55,0,1.33-.45,1.88,2.23.88,2.56,1.77a2.23,2.23,0,0,0,2.34,1.22c1-.11,3-1.22,3.78-1.33S158.73,62.39,158.29,61.5Z"/><path class="cls-2" d="M230.31,42c1.11-1.11,6-2.77,6.57-4a1.54,1.54,0,0,0-.57-2.11l-.2-.1a1.67,1.67,0,0,0-1.22.77c-.11.22-5.68,1.44-7.35,2.32a18.5,18.5,0,0,0-4.34,2.77c-.67.66-1.89,6.19-2.23,6.75s1.78,2.77,2.78,3.43a5.15,5.15,0,0,0,2.78.22c.45-.11-.45-3.87-1-5.2S229.2,43.25,230.31,42Z"/><path class="cls-2" d="M224.41,27.76c1.78,1.77,2.78-.77,4.79-.55C229.2,23.45,224.19,24.89,224.41,27.76Z"/><path class="cls-2" d="M259.92,28.54c0,.66,5,1.22,6.57.88S266.15,26.88,264,27,259.92,27.87,259.92,28.54Z"/><path class="cls-2" d="M74.69,66.15c-.56.44,0,3,.89,3s2.67-3.76,3.9-3,2.11,1,1.89.66-3.78-1.88-4.23-2.21S75.25,65.71,74.69,66.15Z"/><path class="cls-2" d="M87.72,150.66c0,.44,2.23.33,2.56-.33s.11-1.22-.45-1.22A3.56,3.56,0,0,0,87.72,150.66Z"/><path class="cls-2" d="M77.81,147c1-.22.56,1.44.78,2.1s2.78,1.11,3.34,1.55,1.78-.77,2.78-.66-.33-3.54-2-3.43-3-1.55-3.45-1.77A18.5,18.5,0,0,1,76.36,143c-.56-.44-4.9-.77-6.34-.77a4.57,4.57,0,0,0-3.34,2c-.22.44,2.34.88,3,.44s4.12.44,4.9,1.22A4.13,4.13,0,0,0,77.81,147Z"/><path class="cls-2" d="M73.13,150.66c0,.44,2.23.11,2.78.11s.56-.44,0-.77S73.13,150.22,73.13,150.66Z"/><path class="cls-2" d="M74.69,139.15c-.56-.22-1,.66-1,1.11a.78.78,0,0,0,.67.77C74.8,141,75.36,139.38,74.69,139.15Z"/><path class="cls-2" d="M79.48,139.49a1.9,1.9,0,0,0-1.45-.77c-.33,0-.45.66-.45,1.66S79.59,139.93,79.48,139.49Z"/><path class="cls-2" d="M82.82,144.68c.89-.44,1-1.44.45-1.44s-1.56-1.55-2.11-1.77-1,1-1,1.44a.66.66,0,0,0,.55.77h.12C81.26,143.58,81.93,145.13,82.82,144.68Z"/><path class="cls-2" d="M334.5,179.86c-.45.22-2.67.44-3,.11s-.67.88-1.22,1.11-.22,1.33.56,1,2.67.88,4.34,2c.33-1.66.67-3.43.89-5.2Z"/><path class="cls-2" d="M75.69,199.66c-.22.44,2.56,3.21,3.56,4.2A28.71,28.71,0,0,1,83,210.94a12.64,12.64,0,0,1,0,4.54,7.71,7.71,0,0,0,.56,2.32c.11.55-.89,5-.56,6.86s-2.11,7.41-2,10.29,1.34,6.42,1.78,6.19.67,2.54-.11,2.88-1.89,2.54-1.34,2.65,0,2.32.11,3.21.89,6.75,1,8.19,2.23,5,2.67,6.19.89,3.43,1,3.76l.33.77a10.6,10.6,0,0,1,2.23,1c.45.33,3.78.11,4.9-.11s.11-1.22-.33-1.66-.89-3.1-1.45-3.32-.78-3.54-.33-4.31,2.45-1.88,2.67-2.54.22-3.43-.22-3.87.11-3.87-.22-5.64,3-3.32,3.23-4.65,3.9-2.88,4.68-3.54,1.56-4.65,1.11-5.42,1.34-1.55,2.11-1.55a11.19,11.19,0,0,0,2-.55c.22,0,1.22-1.77,1.67-2.1s1.56-4.54,2.45-5.2a7.5,7.5,0,0,0,1.67-3.87,10.26,10.26,0,0,1,1.89-3.54c.45-.66,3.9-2.21,4.56-2.43s1.56-5.75,1.78-7.74a44.37,44.37,0,0,1,1.34-5.31c0-.66,1.11-1.22,1.34-1.44s1-2.77,1.56-3.32,2.45-3,2.45-3.54a17.49,17.49,0,0,1,.67-3.1V187.6c-.56-1.66-2.45-3.76-2.89-3.21s-2.56-1.44-3.67-1.88a18.26,18.26,0,0,0-4.45-.66c-.67,0-3-1.88-4.12-2.21a37.29,37.29,0,0,1-4.23-1.11c-.45-.33-1.11-4.31-3.34-5.64s-6-4.42-6.46-5.53-4.56-3.43-5.9-4.2-3.23-.88-3.45-.55-1.89-2.21-2.67-2.88-3.34-1.22-3.45-.66-1.78.22-2.11-.22-1.67.22-2.34.44-2.67,3.32-3.67,4.09-2.11-.66-2.78-1a6.71,6.71,0,0,0-3.67,1c-.67.44-2.11-3.32-1.78-5.09s-1.56-5.2-3.12-5.31-1.89-3.76-1.67-5.09-2.67-2.21-3.45-2.32-2.56,1.77-2.89,2.77S49,147.12,49.76,143s4-8.3,4.79-8.74,5.12-.66,6.12-.11a1.79,1.79,0,0,0,2-.22,13.66,13.66,0,0,1,4.79.44c1,.44,2.56,4.54,3.67,5s1.45-2.65,1.67-3.43a9.9,9.9,0,0,0-.78-3.21c-.22-.55,1.78-5.53,3.45-6.31s3.45-3.65,3.23-4.09,1.34-.88,1.67-1.11,0-4.2.56-5.09a19.16,19.16,0,0,1,4.79-3.1c1-.44,1.67-2.88,1.34-3.43s2.56-2.88,4.12-3.43,2.78.88,2.45,1S96,106,96.84,105.41s0-2.54-.67-3.1-.22-2.65.56-2.88A2.77,2.77,0,0,0,98,97c-.22-.33,3.34.33,4.68-.66s.33,2.32-.56,3.76a1.54,1.54,0,0,0,.39,2.16,1.57,1.57,0,0,0,.95.28,1.45,1.45,0,0,1,1.45,1.11c.11.33,1.45-.44,2.34,0s1.45-1.22,1.45-2-2.11-2.21-2.45-3.21a50.57,50.57,0,0,1-.45-7.19c0-1-1.45-2.77-1.89-2.43s-1.34-2.77-2.11-3.43a3.86,3.86,0,0,1-.89-2.65c0-.44-2.45-3.1-3.12-4.31s-1.45-1-1.56-.44-1.78.66-2.56.55-1.34-2.88-1.34-3.87-3.23-1.22-3.78-2.1-2.67-.44-3-1a3.58,3.58,0,0,0-2.56-.88c-.33.22-.22,7.85-.56,9.84s-2.11,3.87-2.78,3.76-.22,1.44.11,1.33-1.22,2.21-1.45,3.76-1.78,0-2-1.44-1.78-3.32-2.11-2.88-1.34-.55-1.78-.22S69,83.18,67.79,82.52,66,78.31,65.23,78s-.11-.77-.11-1.33,2.34-2.65,3-3.43a54.91,54.91,0,0,1,4.23-4.87c1-.77,1.78-2.54,1.56-2.88s4.34-1.77,5.57-2.1,2.23-3.76,2.45-4.76a4.08,4.08,0,0,0-1.34-3c-.56-.22,1.67-.33,2.45.11s3-.66,4-.22L91.17,58l-.22,2.43-.56,4.2c-3.56,1.44-4.56,4-3.34,3.87s6.9,2.43,8.46,3.54,2.11-1.66,2.56-2.54a7.37,7.37,0,0,0,0-4.09c-.45-.55,1.78-.33,2.45.22s1.34-.55,1.78-.88.67-2.54,1-3-1-.88-1.11-1.55-2.56-1.66-3.34-2.1a2,2,0,0,1-.56-2.43c.33-.33-.22-2.54-.67-3.21s-3-1.33-3.9-1.33-1.78-2-2.34-2.32a16.35,16.35,0,0,0-4.79-.44c-.78.22-2.34-2.43-3.78-1.55s-2.89-.88-3.56-1.33-4,3.21-3.9,5.64,1.22,4.87,1.78,5-.11,2.32-.67,3-2-.66-1.45-1.22-1.45-3.21-2.11-4.2-2.23-1.44-3.34-1.88l-2,2.21a5.61,5.61,0,0,1,.22,3C67.34,58.51,66,58.74,66,58.07a1.9,1.9,0,0,0-1.45-.55l-2,2.54-2,2.54-2,2.77-1.78,2.43-2.56,3.76-2.34,3.65c-.67,1-1.22,2.1-1.89,3.21a12.36,12.36,0,0,0-1.22,2.21l-1.89,3.43-1,2c-1.34,2.65-2.67,5.42-3.9,8.3v.22l-1.67,4.2-.67,1.55-1.56,4.31-.22.66a151.44,151.44,0,0,0-4.34,14.93c-.11.33-.11.66-.22,1a151.65,151.65,0,0,0-2.78,16.26h0A7.3,7.3,0,0,1,32.28,140c.45,1.33,2.78,2.21,3.23,2.54s.56-2.54.22-3.32.56-1.11.56-.66,2.23,3,2.89,4,1.45,6.75,2.23,8,7.46,3.87,9.68,4.31a12.25,12.25,0,0,1,5.34,3.54c.45.66,3.34,1,3.9,1.33A30.8,30.8,0,0,1,63,162.38a3.87,3.87,0,0,1,1.11,1.88c0,.33,3.78,1.77,4.79,2.77a2.35,2.35,0,0,0,2.78.33c.22-.44,1,2,1.45,2.88a4.59,4.59,0,0,1,.11,3.21c-.33.33-.78,4.09-1.45,4.87s-2,6.31-1.67,7.41A8.2,8.2,0,0,0,73,189.37a.88.88,0,0,1-.11,1.55c-.56,0-.33,5.42,1.11,6.19S75.92,199.33,75.69,199.66Z"/><line class="cls-4" x1="93.84" y1="105.97" x2="93.84" y2="105.97"/><path class="cls-2" d="M83.26,41c1.78-.33,4.9-.88,5.12-1.33a4.62,4.62,0,0,0-.11-2.1h.89c.67,0,1.89-3.76,2.56-4.65s4.9-2.21,5.9-2.77,3.23-2.65,4-3,2.11-2.21,1.89-2.54,2.89-2.21,4-2.65,1.78-1.77,1.34-1.88-6.68,3.32-12.58,6.64h-.11l-5,3.54-3.23,2.54-1.67,1.33-3.78,3.21-.78.66L77.59,41.7Z"/><path class="cls-2" d="M181.33,116.15c-.67,0-.78,2.1,0,2.43s1.22-1.22,1.89-2.1V108h-.11c-.89-.88-.78-.88.11-.22V55l-2,1.77c-1.22,1-3.45,5.2-4.12,6.31A2.68,2.68,0,0,1,175,64.27a2.1,2.1,0,0,0-.78,1.55c0,.44-3.67,2.32-4.12,4s.45,5.53.45,6.86,1.34,4.09,2.34,4.09.56,2.32.22,3,.67,1.33.56,1.88-2.56,1.33-3.34,1.55a5.54,5.54,0,0,0-2.23,2.77c-.11.55-2.56,1-3.45,1.77s.56-1.33.67-1.77a3,3,0,0,0-.56-2.77c-.33-.33-.56-4.76-1.22-5.75A24.84,24.84,0,0,0,161,78.54c-.45-.33.22-1.44.56-2s-2.11-.77-2.67-.44-1,4.76-1.22,6a3.75,3.75,0,0,0,1.56,3.1c.45.11.22,2.21-.56,2.32s-1.56,3.21-1.11,4-.56,2.1-1,2.43,3.12.11,4.79.11a4.36,4.36,0,0,1,2.78.77c-.11.11-3.12.55-3.67,1.22s-2.56,2-2.89,2.54.67,1.66,1.45,1.66,1.78,2.88,2.45,3.43a2.42,2.42,0,0,1,.11,2.54c-.22.44-4.34-.22-5.79.11s-3.45,3.54-3.56,4.76a30.78,30.78,0,0,0,.45,5.64c.11.88,3.34,1.55,4,2s3.67,0,4.34.33,2.67-3.1,3.12-4.65,3.67-4.42,4.34-5.53,4.12-.88,5-1.44.45,2.65.78,4.42,3.78,1.55,3.23-.11.33-2.32.45-1.77,3.34,1.88,4,2.77S182,116.15,181.33,116.15Z"/><path class="cls-2" d="M183.22,126.65a8.71,8.71,0,0,0-1.67-.77c-2-.77-3.56-3.76-3.9-4.2s.33-1.33.11-2-4.68-.66-6-.22-8.13,1.22-9.68,1.88-4,0-4.79-.11-2.56,2.1-3.45,2.43-2,3.54-2.56,7L150.05,133l-.78,1.55c-2.23,1.66-4.68,7.3-5.45,8.52s-1.34,9.29-1.34,12.06,2.34,8.52,3.12,10.18,4.79,5.09,6.23,6,5.9,1,7.35,1a4.33,4.33,0,0,0,3.67-3.1l2.11.22h1c0,1.22,3.23,2.1,4,2.54a6.16,6.16,0,0,0,3.45-.11c.56-.11,1.34,5.42.89,7.08s1.11,7.3,1.56,9.07,2.45,6.42,2.56,8.07-1.11,7.3-1.34,9.29,2.45,7.41,3.12,9.29a34.09,34.09,0,0,1,1.22,6.86,20.49,20.49,0,0,0,1.56,4v-99h0Z"/><path class="cls-2" d="M104.08,261.72h2.11C106.42,259.39,104,259.72,104.08,261.72Z"/><path class="cls-2" d="M146.82,51.21c1.11.44,3.12-1,2.34-1.55s-.33-.55,0-.33.78-1.88.45-2.32,3.12-3,2.56-5.42,1-5,1.89-5,.67-2.77-.56-3,0-.44.45-.88a6.93,6.93,0,0,0,.67-3.32c-.22-.44,1.78-1,2.11-1.55a8.7,8.7,0,0,1,3.45-1.77c.89-.11,1.22-2.32.45-2.21a7.16,7.16,0,0,1-3.56-.77c-.45-.44-3.78-.77-4.79-.44s-.33-2.43,1-2.65.22-2.21-1.22-2.21-5.12-.55-5.9-.33a14.44,14.44,0,0,1-3.12-.66c-.56-.11-5,1.33-7,1.22a47.26,47.26,0,0,0-8.24.44c-1.11.22-1.89,2.43-1.67,3.21s-4.9.77-6.46.77-10.13,1.77-12.36,3-3.9,4.31-3.23,4.31-1.22,1.77-2.45,2.21-4,.55-4.68,1.22.67,1.11.89,1.55,1-.44,1.78,0,3.23.55,3.9.88-2.11.77-3.34.88-1,2.54,0,3,3.78.66,4,.22,3.23.44,4.56.66,2.34,3.43,2.78,4.2.45,3.21.45,4,2.34,2,2.78,1.55.33,1.11-.67,1-.33,2.65.89,3.1.33,2.1-.33,2.65-.33,2.1-1,2.77,2.56,6.19,2.45,9.07,1.78,5.2,2.45,5.2,3,.55,3.34,1.22,1.45-.44,1.89-.88a28.4,28.4,0,0,0,2.11-3.1c.78-1.22,2.34-7,2.56-7.63s2.89-.22,3.56-.55a28.25,28.25,0,0,0,2.89-2.1c.45-.44,4.34-2,5.45-2.77s2.78-4,3.67-4.76-.45-.44-1.45-1.11a1.1,1.1,0,0,1-.22-1.77C142.59,50,145.82,50.77,146.82,51.21Z"/><path class="cls-2" d="M180.89,25.66c-1.11-.33-3.34.88-3,1.55s-1.78-.88-3.23-.11-1.89,3.32-1.22,3.65,1.11,2.32,1.11,2.77,2.78.11,3.56-.44.56,2-.11,2.77.22,2.1,1,2.21,1.78,1.88,2.67,1.88a2.66,2.66,0,0,0,1.45-1.66V28.76h0C182.56,28.76,182,26,180.89,25.66Z"/><path class="cls-2" d="M154.17,89.82a1.77,1.77,0,0,0,1.45-1.55c0-.66-1.22-3.87-1.67-3.87s-1.34,2.32-2,2.1-.89,1.88-.78,2.65S153.17,90,154.17,89.82Z"/><path class="cls-2" d="M151.05,66a2.23,2.23,0,0,0,2.34,1.22c1-.11,3-1.22,3.78-1.33s1.45-3.65,1-4.42-3.78-.66-4.68-.66a11.85,11.85,0,0,1-3.9-1.44c-.56-.55-.78,2.1-1.56,2.43s.33.77.67.55,0,1.33-.45,1.88S150.83,65.37,151.05,66Z"/><path class="cls-2" d="M74.69,66.15c-.56.44,0,3,.89,3s2.67-3.76,3.9-3,2.11,1,1.89.66-3.78-1.88-4.23-2.21S75.25,65.71,74.69,66.15Z"/><path class="cls-2" d="M87.72,150.66c0,.44,2.23.33,2.56-.33s.11-1.22-.45-1.22A3.56,3.56,0,0,0,87.72,150.66Z"/><path class="cls-2" d="M77.81,147c1-.22.56,1.44.78,2.1s2.78,1.11,3.34,1.55,1.78-.77,2.78-.66-.33-3.54-2-3.43-3-1.55-3.45-1.77A18.5,18.5,0,0,1,76.36,143c-.56-.44-4.9-.77-6.34-.77a4.57,4.57,0,0,0-3.34,2c-.22.44,2.34.88,3,.44s4.12.44,4.9,1.22A4.13,4.13,0,0,0,77.81,147Z"/><path class="cls-2" d="M73.13,150.66c0,.44,2.23.11,2.78.11s.56-.44,0-.77S73.13,150.22,73.13,150.66Z"/><path class="cls-2" d="M74.69,139.15c-.56-.22-1,.66-1,1.11a.78.78,0,0,0,.67.77C74.8,141,75.36,139.38,74.69,139.15Z"/><path class="cls-2" d="M79.48,139.49a1.9,1.9,0,0,0-1.45-.77c-.33,0-.45.66-.45,1.66S79.59,139.93,79.48,139.49Z"/><path class="cls-2" d="M82.82,144.68c.89-.44,1-1.44.45-1.44s-1.56-1.55-2.11-1.77-1,1-1,1.44a.66.66,0,0,0,.55.77h.12C81.26,143.58,81.93,145.13,82.82,144.68Z"/><path class="cls-5" d="M88.38,37.94c-.11-.11-.78.33-.45.55A.36.36,0,0,0,88.38,37.94Z"/><path class="cls-5" d="M105.53,88.71c-.11-.11-.78.33-.56.55S105.86,89,105.53,88.71Z"/><path class="cls-6" d="M104.86,44.69h-86A18.75,18.75,0,0,0,0,63.38v205A18.75,18.75,0,0,0,18.81,287h86a18.75,18.75,0,0,0,18.81-18.69V63.49a18.64,18.64,0,0,0-18.48-18.8Z"/><path class="cls-7" d="M45.53,59.29H78a1.66,1.66,0,0,1,1.67,1.66,1.55,1.55,0,0,1-1.44,1.66H45.53a1.66,1.66,0,1,1,0-3.32Z"/><path class="cls-7" d="M61.78,273.33a10.84,10.84,0,1,1,10.91-10.84A11,11,0,0,1,61.78,273.33Z"/><rect class="cls-7" x="8.01" y="81.63" width="107.42" height="158.06"/><path class="cls-3" d="M61.78,255a7.66,7.66,0,0,0-7.57,7.52A7.57,7.57,0,1,0,61.78,255Z"/><rect class="cls-8" x="14.25" y="118.14" width="95.06" height="48.57"/><rect class="cls-9" x="40.3" y="97.23" width="68.68" height="6.75"/><path class="cls-9" d="M32.06,100.66a8.91,8.91,0,1,1-8.91-8.85A8.88,8.88,0,0,1,32.06,100.66Z"/><rect class="cls-9" x="14.25" y="197.89" width="95.06" height="2.78"/><rect class="cls-9" x="14.25" y="207.51" width="95.06" height="2.78"/><rect class="cls-9" x="14.25" y="217.03" width="95.06" height="2.78"/><rect class="cls-9" x="14.25" y="226.54" width="69.02" height="2.78"/><rect class="cls-9" x="14.25" y="179.42" width="63.23" height="6.75"/><path class="cls-7" d="M40.63,146.45V134.18h2.23L44.75,139l1.34,3.54h0c-.11-1.33-.22-3.43-.22-5.64v-2.77H48v12.28H45.75l-1.89-4.65a35.26,35.26,0,0,1-1.22-3.65h0c0,1.22.11,3.1.11,5.64v2.77H40.63Z"/><path class="cls-7" d="M55.32,141H52.54v3.32h3.23v2.1H50.2V134.18h5.34v2.1h-3v2.88h2.78V141Z"/><path class="cls-7" d="M58.66,136.39H56.44v-2.21h6.79v2.21H61v10.07H58.55V136.39Z"/><path class="cls-7" d="M66.23,146.45l-2.11-12.28h2.45l.56,4.87c.11,1.44.22,2.77.45,4.31h0c.11-1.55.45-2.88.67-4.31l.89-4.87H71L71.8,139c.22,1.44.45,2.77.56,4.31h0L72.8,139l.56-4.87h2.34l-2.23,12.28H71.35l-.78-4c-.22-1.11-.33-2.54-.56-4h0c-.22,1.44-.45,2.88-.67,4.09l-.78,4H66.23Z"/><path class="cls-7" d="M84.71,140.15c0,4.65-1.67,6.53-4,6.53s-3.9-3-3.9-6.31,1.34-6.31,4.12-6.31S84.71,137.27,84.71,140.15Zm-5.45.22c0,2.77.56,4.2,1.56,4.2s1.45-1.77,1.45-4.31-.33-4.09-1.45-4.09S79.26,137.72,79.26,140.37Z"/><path class="cls-7" d="M86.16,134.4l2.67-.22a4.81,4.81,0,0,1,3.34.88,3.09,3.09,0,0,1,1,2.54,3.32,3.32,0,0,1-1.89,3.1h0c.89.33,1.22,1.11,1.56,2.43a19.7,19.7,0,0,0,.78,3.32H91.06a16.83,16.83,0,0,1-.56-3c-.22-1.55-.56-2-1.45-2h-.33v4.87H86.27V134.29Zm2.45,5.31h.45a1.66,1.66,0,0,0,1.67-1.88,1.55,1.55,0,0,0-1.32-1.75l-.24,0h-.56Z"/><path class="cls-7" d="M94.84,134.18h2.45v5.53h0l.56-1.55,1.67-4h2.67l-2.78,5.31,2.78,7H99.52l-1.78-5.09-.56,1v4.09H94.73V134.18Z"/><g id="Page-1"><g id="xamagon"><path id="Logo" class="cls-7" d="M24,132.41a1.45,1.45,0,0,0-1.45.55l-4.45,7.52a1.54,1.54,0,0,0,0,1.55l4.45,7.52a1.56,1.56,0,0,0,1.45.66h8.91a1.56,1.56,0,0,0,1.45-.66L38.85,142a1.54,1.54,0,0,0,0-1.55l-4.45-7.3a1.45,1.45,0,0,0-1.45-.55H24Zm.11,3.65v-.33h1.56a1.22,1.22,0,0,1,.22.44l2.56,4.76h0l2.56-4.87a1,1,0,0,1,.22-.33h1.56a.55.55,0,0,1,.22.55l-2.56,4.65,2.56,3.87c.11.11,0-.33-.22-.33H31.28c-.11,0-.11.66-.22.55l-2.56-4.2h0l-2.56,4c0,.11-.11-.55-.22-.55H24.16c-.11,0-.22.44-.22.33l2.56-4.2-2.56-4.42a.22.22,0,0,1,.06-.31l.05,0h0Z"/></g></g></g></g></g></svg>